<svg width="126" height="40" viewBox="0 0 126 40" fill="none" xmlns="http://www.w3.org/2000/svg">
<path d="M47.9518 18.1206H46.1643V13.6555H47.9518V11.8457H37.998V13.6555H39.7856V18.1206H37.998V19.9303H47.9518V18.1206ZM44.0726 18.1206H41.8846V13.6555H44.0726V18.1206Z" fill="white"/>
<path d="M50.4585 13.2387H48.2334V14.9372H50.4585V16.3538H48.2334V18.0449H50.4585V20.7818H52.5501V11.4141H50.4585V13.2387Z" fill="white"/>
<path d="M47.5959 21.1387C45.0889 21.1387 43.0938 22.8372 43.0938 25.1513C43.0938 27.4654 45.0889 29.164 47.5959 29.164C50.1029 29.164 52.1055 27.4654 52.1055 25.1513C52.1055 22.8372 50.1103 21.1387 47.5959 21.1387ZM47.5959 27.3764C46.1051 27.3764 45.1631 26.3232 45.1631 25.1513C45.1631 23.9794 46.1051 22.9262 47.5959 22.9262C49.0868 22.9262 50.0287 23.9794 50.0287 25.1513C50.0287 26.3232 49.0868 27.3764 47.5959 27.3764Z" fill="white"/>
<path d="M63.8614 16.1995C63.8614 13.789 62.1852 11.8457 59.4112 11.8457C56.6372 11.8457 54.9609 13.789 54.9609 16.1995C54.9609 18.6101 56.6372 20.5534 59.4112 20.5534C62.1852 20.5534 63.8614 18.6101 63.8614 16.1995ZM57.0377 16.1995C57.0377 14.8422 57.9055 13.6332 59.4112 13.6332C60.9169 13.6332 61.7847 14.8422 61.7847 16.1995C61.7847 17.5569 60.9169 18.7658 59.4112 18.7658C57.9055 18.7658 57.0377 17.5569 57.0377 16.1995Z" fill="white"/>
<path d="M68.7645 11.4141H66.6729V23.3778H68.7645V17.6741H71.531V15.8643H68.7645V11.4141Z" fill="white"/>
<path d="M100.598 19.7435H102.69V11.4141H100.598V13.9359H96.9414V15.7456H100.598V19.7435Z" fill="white"/>
<path d="M96.9413 19.3508L98.1873 18.0899C97.2824 17.2815 95.7323 15.7313 95.0351 14.3591C94.6939 13.699 94.5307 13.0241 94.5307 12.4159V11.5703H92.2833V12.4159C92.2833 13.4172 92.135 13.9586 91.8086 14.5446C91.1856 15.6942 89.8134 17.1999 88.5303 18.2605L89.8505 19.6179C91.0224 18.6907 92.7728 16.9403 93.5665 15.3753C94.2414 16.7326 95.8806 18.5424 96.9413 19.3508Z" fill="white"/>
<path d="M60.1453 26.1378V22.4219H58.0537V26.7609C58.0537 27.7696 58.9883 28.5855 60.1453 28.5855H69.1348V26.7609H60.7313C60.3753 26.7609 60.1453 26.5532 60.1453 26.1378Z" fill="white"/>
<path d="M77.3016 26.1378V22.4219H75.21V26.7609C75.21 27.7696 76.1445 28.5855 77.3016 28.5855H86.2911V26.7609H77.8875C77.5315 26.7609 77.3016 26.5532 77.3016 26.1378Z" fill="white"/>
<path d="M93.8709 26.4337V25.4324H102.504V21.1008C102.504 20.6706 102.356 20.5742 101.941 20.5742H91.7793V22.2876H100.413V23.7191H91.7793V26.9455C91.7793 27.9542 92.7138 28.7775 93.8709 28.7775H103.068V27.0642H94.4494C94.0934 27.0642 93.8635 26.8565 93.8635 26.4411L93.8709 26.4337Z" fill="white"/>
<path d="M79.1253 17.6296H83.8203V23.3778H85.912V11.4141H83.8203V15.8272H80.1637C80.3862 14.9149 80.4307 14.8482 80.4307 13.8469C80.4307 12.8456 79.5036 12.0371 78.3539 12.0371H72.5464V13.8469H77.8199C78.1833 13.8469 78.3465 14.0323 78.3465 14.3586C78.3465 16.0201 76.4626 18.3342 72.3535 19.9215L73.2732 21.5087C75.4464 20.7373 77.8347 19.2836 79.1179 17.6444L79.1253 17.6296Z" fill="white"/>
<path d="M111.775 11.5703H110.551C109.595 13.1724 108.586 16.3766 108.586 19.2618C108.586 22.1471 109.587 25.3513 110.551 26.9534H111.775C110.878 25.1584 109.995 21.8875 109.995 19.2618C109.995 16.6362 110.885 13.3652 111.775 11.5703Z" fill="white"/>
<path d="M123.161 11.5703H121.938C122.835 13.3652 123.718 16.6362 123.718 19.2618C123.718 21.8875 122.828 25.1584 121.938 26.9534H123.161C124.118 25.3513 125.127 22.1471 125.127 19.2618C125.127 16.3766 124.126 13.1724 123.161 11.5703Z" fill="white"/>
<path d="M122.604 20.6406H111.101V21.9905H115.996V25.8697H117.553V21.9905H122.604V20.6406Z" fill="white"/>
<path d="M112.117 18.35L112.822 19.5738C113.875 19.1214 115.677 18.1497 116.731 16.518L116.849 16.34L116.968 16.518C117.977 18.083 119.564 19.0175 120.758 19.5293L121.463 18.3055C120.498 17.853 118.132 16.6811 117.702 14.9826L117.658 14.812H120.914V13.4844H112.829V14.812H115.892L115.848 14.9826C115.544 16.1842 114.283 17.319 112.117 18.35Z" fill="white"/>
<path d="M28.1404 23.5637V12.7273H23.7792V29.082H21.1239V14.6261H16.7626V30.7879H14.1147V13.6767H9.75347V28.318H7.09815V7.20898H2.6479V15.5755H0V39.9999H30.7883V23.5637H28.133H28.1404Z" fill="black"/>
<path d="M0 0V15.5759H2.6479V7.20941H7.09815V28.3184H9.75347V13.6771H14.1147V30.7883H16.77V14.6265H21.1239V29.075H23.7792V12.7277H28.1404V23.5641H30.7883V0H0Z" fill="#C2AB92"/>
</svg>
