<?xml version="1.0" encoding="utf-8"?>
<!-- Generator: Adobe Illustrator 27.9.0, SVG Export Plug-In . SVG Version: 6.00 Build 0)  -->
<svg version="1.1" id="Layer_1" xmlns="http://www.w3.org/2000/svg" xmlns:xlink="http://www.w3.org/1999/xlink" x="0px" y="0px"
	 viewBox="0 0 126 40" style="enable-background:new 0 0 126 40;" xml:space="preserve">
<style type="text/css">
	.st0{fill:#231F20;}
	.st1{fill:#C2AB92;}
</style>
<path class="st0" d="M48,18.1h-1.8v-4.5H48v-1.8H38v1.8h1.8v4.5H38v1.8h10V18.1z M44.1,18.1h-2.2v-4.5h2.2V18.1z"/>
<path class="st0" d="M50.5,13.2h-2.2v1.7h2.2v1.4h-2.2V18h2.2v2.7h2.1v-9.4h-2.1V13.2z"/>
<path class="st0" d="M47.6,21.1c-2.5,0-4.5,1.7-4.5,4s2,4,4.5,4s4.5-1.7,4.5-4S50.1,21.1,47.6,21.1z M47.6,27.4
	c-1.5,0-2.4-1.1-2.4-2.2s0.9-2.2,2.4-2.2c1.5,0,2.4,1.1,2.4,2.2S49.1,27.4,47.6,27.4z"/>
<path class="st0" d="M63.9,16.2c0-2.4-1.7-4.4-4.5-4.4c-2.8,0-4.5,1.9-4.5,4.4c0,2.4,1.7,4.4,4.5,4.4C62.2,20.6,63.9,18.6,63.9,16.2
	z M57,16.2c0-1.4,0.9-2.6,2.4-2.6c1.5,0,2.4,1.2,2.4,2.6c0,1.4-0.9,2.6-2.4,2.6C57.9,18.8,57,17.6,57,16.2z"/>
<path class="st0" d="M68.8,11.4h-2.1v12h2.1v-5.7h2.8v-1.8h-2.8V11.4z"/>
<path class="st0" d="M100.6,19.7h2.1v-8.3h-2.1v2.5h-3.7v1.8h3.7V19.7z"/>
<path class="st0" d="M96.9,19.4l1.2-1.3c-0.9-0.8-2.5-2.4-3.2-3.7c-0.3-0.7-0.5-1.3-0.5-1.9v-0.8h-2.2v0.8c0,1-0.1,1.5-0.5,2.1
	c-0.6,1.1-2,2.7-3.3,3.7l1.3,1.4c1.2-0.9,2.9-2.7,3.7-4.2C94.2,16.7,95.9,18.5,96.9,19.4z"/>
<path class="st0" d="M60.1,26.1v-3.7h-2.1v4.3c0,1,0.9,1.8,2.1,1.8h9v-1.8h-8.4C60.4,26.8,60.1,26.6,60.1,26.1z"/>
<path class="st0" d="M77.3,26.1v-3.7h-2.1v4.3c0,1,0.9,1.8,2.1,1.8h9v-1.8h-8.4C77.5,26.8,77.3,26.6,77.3,26.1z"/>
<path class="st0" d="M93.9,26.4v-1h8.6v-4.3c0-0.4-0.1-0.5-0.6-0.5H91.8v1.7h8.6v1.4h-8.6v3.2c0,1,0.9,1.8,2.1,1.8h9.2v-1.7h-8.6
	C94.1,27.1,93.9,26.9,93.9,26.4L93.9,26.4z"/>
<path class="st0" d="M79.1,17.6h4.7v5.7h2.1v-12h-2.1v4.4h-3.7c0.2-0.9,0.3-1,0.3-2S79.5,12,78.4,12h-5.8v1.8h5.3
	c0.4,0,0.5,0.2,0.5,0.5c0,1.7-1.9,4-6,5.6l0.9,1.6C75.4,20.7,77.8,19.3,79.1,17.6L79.1,17.6z"/>
<path class="st0" d="M111.8,11.6h-1.2c-1,1.6-2,4.8-2,7.7c0,2.9,1,6.1,2,7.7h1.2c-0.9-1.8-1.8-5.1-1.8-7.7
	C110,16.6,110.9,13.4,111.8,11.6z"/>
<path class="st0" d="M123.2,11.6h-1.2c0.9,1.8,1.8,5.1,1.8,7.7c0,2.6-0.9,5.9-1.8,7.7h1.2c1-1.6,2-4.8,2-7.7
	C125.1,16.4,124.1,13.2,123.2,11.6z"/>
<path class="st0" d="M122.6,20.6h-11.5V22h4.9v3.9h1.6V22h5.1V20.6z"/>
<path class="st0" d="M112.1,18.4l0.7,1.2c1.1-0.5,2.9-1.4,3.9-3.1l0.1-0.2l0.1,0.2c1,1.6,2.6,2.5,3.8,3l0.7-1.2
	c-1-0.5-3.3-1.6-3.8-3.3l0-0.2h3.3v-1.3h-8.1v1.3h3.1l0,0.2C115.5,16.2,114.3,17.3,112.1,18.4z"/>
<path d="M28.1,23.6V12.7h-4.4v16.4h-2.7V14.6h-4.4v16.2h-2.6V13.7H9.8v14.6H7.1V7.2H2.6v8.4H0V40h30.8V23.6H28.1L28.1,23.6z"/>
<path class="st1" d="M0,0v15.6h2.6V7.2h4.5v21.1h2.7V13.7h4.4v17.1h2.7V14.6h4.4v14.4h2.7V12.7h4.4v10.8h2.6V0H0z"/>
</svg>
